<svg width="157" height="37" viewBox="0 0 157 37" fill="none" xmlns="http://www.w3.org/2000/svg">
<g id="Group 3">
<g id="cherry">
<path d="M25.585 9.4493C24.3237 8.13063 22.8617 7.06997 21.199 6.2673C19.5363 5.43597 17.716 5.0203 15.738 5.0203C13.7027 5.0203 11.8107 5.4073 10.062 6.1813C8.31333 6.9553 6.80833 8.01597 5.547 9.3633C4.28567 10.7106 3.29667 12.3016 2.58 14.1363C1.86333 15.971 1.505 17.949 1.505 20.0703C1.505 22.0196 1.86333 23.883 2.58 25.6603C3.29667 27.4376 4.28567 29 5.547 30.3473C6.837 31.6946 8.342 32.7696 10.062 33.5723C11.8107 34.3463 13.7027 34.719 15.738 34.6903C17.7733 34.6616 19.6367 34.246 21.328 33.4433C23.048 32.6406 24.5243 31.5656 25.757 30.2183C26.9897 28.871 27.95 27.2943 28.638 25.4883C29.3547 23.6823 29.7273 21.776 29.756 19.7693L31.347 18.8233C31.347 21.002 30.96 23.0803 30.186 25.0583C29.4407 27.0363 28.38 28.7706 27.004 30.2613C25.628 31.752 23.9797 32.9416 22.059 33.8303C20.1383 34.6903 18.0313 35.1203 15.738 35.1203C13.5593 35.1203 11.5097 34.719 9.589 33.9163C7.66833 33.1136 5.99133 32.0386 4.558 30.6913C3.15333 29.3153 2.03533 27.7243 1.204 25.9183C0.401333 24.0836 0 22.1343 0 20.0703C0 17.949 0.401333 15.9423 1.204 14.0503C2.03533 12.1583 3.15333 10.51 4.558 9.1053C5.99133 7.70063 7.66833 6.59697 9.589 5.7943C11.5097 4.96297 13.5593 4.56163 15.738 4.5903C17.802 4.61897 19.737 4.99163 21.543 5.7083C23.3777 6.42497 24.983 7.4283 26.359 8.7183L25.585 9.4493ZM29.756 6.2243L22.618 12.5453L22.231 12.1153L29.326 5.8803L29.756 6.2243Z" fill="#2B0909"/>
<path d="M36.0585 5.2783L37.5635 4.5903V18.9093H54.7205V5.2783L56.2255 4.5903V34.9483H54.7205V19.2963H37.5635V34.9483H36.0585V5.2783Z" fill="#2B0909"/>
<path d="M76.6018 4.8483V5.2783H63.3148V18.7373H76.6018V19.1673H63.3148V34.5183H79.3968V34.9483H61.8098V4.8483H76.6018Z" fill="#2B0909"/>
<path d="M84.1177 34.9483V4.8483H93.7497C95.0684 4.79097 96.2294 4.94863 97.2327 5.3213C98.2647 5.69397 99.1247 6.20997 99.8127 6.8693C100.501 7.52863 101.017 8.30263 101.361 9.1913C101.733 10.08 101.92 11.0116 101.92 11.9863C101.92 12.961 101.705 13.8926 101.275 14.7813C100.873 15.67 100.3 16.444 99.5547 17.1033C98.8381 17.734 97.9781 18.2356 96.9747 18.6083C96.0001 18.9523 94.9251 19.11 93.7497 19.0813H91.1267H85.6657L85.6227 34.9483H84.1177ZM85.6657 18.6513H93.7927C94.9394 18.6513 95.9284 18.4506 96.7597 18.0493C97.5911 17.648 98.2791 17.132 98.8237 16.5013C99.3684 15.842 99.7697 15.1253 100.028 14.3513C100.314 13.5486 100.458 12.7603 100.458 11.9863C100.458 11.1836 100.329 10.3953 100.071 9.6213C99.8127 8.81863 99.3971 8.10197 98.8237 7.4713C98.2791 6.81197 97.5767 6.28163 96.7167 5.8803C95.8567 5.47897 94.8534 5.2783 93.7067 5.2783H85.6227L85.6657 18.6513ZM93.4057 18.9953L93.8787 18.8663L103.855 34.9483H103.339L93.4057 18.9953Z" fill="#2B0909"/>
<path d="M108.567 34.9483V4.8483H118.199C119.518 4.79097 120.679 4.94863 121.682 5.3213C122.714 5.69397 123.574 6.20997 124.262 6.8693C124.95 7.52863 125.466 8.30263 125.81 9.1913C126.183 10.08 126.369 11.0116 126.369 11.9863C126.369 12.961 126.154 13.8926 125.724 14.7813C125.323 15.67 124.75 16.444 124.004 17.1033C123.288 17.734 122.428 18.2356 121.424 18.6083C120.45 18.9523 119.375 19.11 118.199 19.0813H115.576H110.115L110.072 34.9483H108.567ZM110.115 18.6513H118.242C119.389 18.6513 120.378 18.4506 121.209 18.0493C122.041 17.648 122.729 17.132 123.273 16.5013C123.818 15.842 124.219 15.1253 124.477 14.3513C124.764 13.5486 124.907 12.7603 124.907 11.9863C124.907 11.1836 124.778 10.3953 124.52 9.6213C124.262 8.81863 123.847 8.10197 123.273 7.4713C122.729 6.81197 122.026 6.28163 121.166 5.8803C120.306 5.47897 119.303 5.2783 118.156 5.2783H110.072L110.115 18.6513ZM117.855 18.9953L118.328 18.8663L128.304 34.9483H127.788L117.855 18.9953Z" fill="#2B0909"/>
</g>
<path id="c" d="M132.748 29.6754C134.539 30.0253 136.345 30.0487 138.167 29.7456C140.004 29.4659 141.731 28.7558 143.347 27.6151C145.01 26.4413 146.332 25.0341 147.315 23.3933C148.297 21.7525 148.915 20.0181 149.168 18.19C149.422 16.3618 150.486 13.7684 150.013 11.8563C150.425 13.8814 150.463 15.8728 150.125 17.8304C149.764 19.8045 149.031 21.6733 147.924 23.4367C146.835 25.2235 145.392 26.7334 143.595 27.9664C141.892 29.1332 140.097 29.9447 138.208 30.4007C136.296 30.8732 134.406 30.9793 132.538 30.719L132.748 29.6754ZM131.201 34.7155L133.387 25.435L133.951 25.5632L131.75 34.7485L131.201 34.7155Z" fill="#2B0909"/>
<g id="Group 1">
<circle id="Ellipse 4" cx="143.737" cy="13.4482" r="12.5" fill="#930F0F"/>
<ellipse id="Ellipse 5" cx="152.451" cy="10.2899" rx="2.01613" ry="4.03226" transform="rotate(-23.7913 152.451 10.2899)" fill="#F8BBBB"/>
</g>
</g>
</svg>
